<?xml version="1.0" standalone="no"?>
<!DOCTYPE svg PUBLIC "-//W3C//DTD SVG 20010904//EN"
 "http://www.w3.org/TR/2001/REC-SVG-20010904/DTD/svg10.dtd">
<svg version="1.0" xmlns="http://www.w3.org/2000/svg"
 width="143.000000pt" height="143.000000pt" viewBox="0 0 143.000000 143.000000"
 preserveAspectRatio="xMidYMid meet">
<metadata>
Created by potrace 1.14, written by Peter Selinger 2001-2017
</metadata>
<g transform="translate(0.000000,143.000000) scale(0.100000,-0.100000)"
fill="#000000" stroke="none">
<path d="M357 1144 c-4 -4 -7 -20 -7 -36 0 -25 -4 -28 -31 -28 -22 0 -32 -5
-36 -20 -4 -15 -14 -20 -39 -20 l-34 0 0 -348 0 -349 125 -6 c138 -7 243 -28
324 -63 l54 -24 51 24 c75 35 181 56 321 63 l125 6 0 349 0 348 -34 0 c-25 0
-35 5 -39 20 -4 15 -14 20 -36 20 -28 0 -31 3 -31 30 0 39 -15 44 -84 30 -82
-17 -165 -63 -226 -124 l-54 -54 -25 34 c-34 44 -111 99 -175 123 -61 23 -138
36 -149 25z"/>
</g>
</svg>
